<svg width="50" height="48" viewBox="0 0 50 48" fill="none" xmlns="http://www.w3.org/2000/svg">
<g id="Vector">
<path d="M16.0392 5.56894C19.4642 -1.85632 30.0173 -1.85631 33.4422 5.56894C34.8381 8.59518 37.706 10.6788 41.0155 11.0712C49.1357 12.034 52.3968 22.0707 46.3933 27.6225C43.9466 29.8852 42.8511 33.2567 43.5006 36.5254C45.0942 44.5457 36.5565 50.7487 29.4213 46.7546C26.5132 45.1268 22.9683 45.1268 20.0602 46.7546C12.9249 50.7487 4.38723 44.5457 5.98085 36.5254C6.63035 33.2567 5.5349 29.8852 3.08813 27.6225C-2.91535 22.0707 0.345755 12.034 8.46596 11.0712C11.7754 10.6788 14.6433 8.59518 16.0392 5.56894Z" fill="#17181D"/>
<path d="M26.752 32.4486L26.2304 27.4112L26.8468 25.6601L26.2304 23.933L26.752 18.8717H29.9286L29.2174 25.6601L29.9286 32.4486H26.752ZM27.7002 25.6601C27.3999 27.0834 26.9021 28.3307 26.2067 29.4022C25.5113 30.4736 24.65 31.3052 23.6227 31.8968C22.6113 32.4885 21.4813 32.7844 20.2327 32.7844C18.921 32.7844 17.7594 32.4885 16.7479 31.8968C15.7364 31.2892 14.9462 30.4496 14.3772 29.3782C13.8083 28.3067 13.5238 27.0674 13.5238 25.6601C13.5238 24.2369 13.8083 22.9975 14.3772 21.9421C14.9462 20.8706 15.7364 20.0391 16.7479 19.4474C17.7594 18.8397 18.921 18.5359 20.2327 18.5359C21.4813 18.5359 22.6113 18.8317 23.6227 19.4234C24.65 20.0151 25.5113 20.8467 26.2067 21.9181C26.9179 22.9735 27.4157 24.2209 27.7002 25.6601ZM16.6531 25.6601C16.6531 26.5716 16.8348 27.3792 17.1983 28.0828C17.5776 28.7705 18.0912 29.3142 18.7392 29.714C19.3872 30.0978 20.13 30.2897 20.9676 30.2897C21.821 30.2897 22.6113 30.0978 23.3382 29.714C24.0652 29.3142 24.7053 28.7705 25.2585 28.0828C25.8274 27.3792 26.2778 26.5716 26.6097 25.6601C26.2778 24.7486 25.8274 23.949 25.2585 23.2614C24.7053 22.5578 24.0652 22.014 23.3382 21.6302C22.6113 21.2305 21.821 21.0306 20.9676 21.0306C20.13 21.0306 19.3872 21.2305 18.7392 21.6302C18.0912 22.014 17.5776 22.5578 17.1983 23.2614C16.8348 23.949 16.6531 24.7486 16.6531 25.6601Z" fill="white"/>
<path d="M34.3169 32.6405C33.9534 32.6405 33.6215 32.5525 33.3212 32.3766C33.0367 32.2007 32.8076 31.9688 32.6337 31.681C32.4599 31.3771 32.373 31.0413 32.373 30.6735C32.373 30.3057 32.4599 29.9779 32.6337 29.69C32.8076 29.3862 33.0367 29.1463 33.3212 28.9704C33.6215 28.7945 33.9534 28.7065 34.3169 28.7065C34.6804 28.7065 35.0044 28.7945 35.2888 28.9704C35.5891 29.1463 35.8262 29.3862 36 29.69C36.1739 29.9779 36.2608 30.3057 36.2608 30.6735C36.2608 31.0413 36.1739 31.3771 36 31.681C35.8262 31.9688 35.5891 32.2007 35.2888 32.3766C35.0044 32.5525 34.6804 32.6405 34.3169 32.6405Z" fill="white"/>
</g>
</svg>
